<svg xmlns="http://www.w3.org/2000/svg" width="48" height="48" viewBox="0 0 48 48"><g class="nc-icon-wrapper"><path d="M46 39H2C1.448 39 1 38.552 1 38V26C1 25.448 1.448 25 2 25H46C46.552 25 47 25.448 47 26V38C47 38.552 46.552 39 46 39Z" fill="url(#nc-ui-1-0_linear_43_320)"></path> <path d="M24 18C23.68 18 23.379 17.847 23.191 17.588L15.191 6.588C14.866 6.141 14.965 5.516 15.412 5.191C15.583 5.067 15.789 5 16 5H32C32.552 5 33 5.448 33 6C33 6.211 32.933 6.417 32.809 6.588L24.809 17.588C24.621 17.847 24.32 18 24 18Z" fill="url(#nc-ui-1-1_linear_43_320)"></path> <path d="M24 27H3V37H24V27Z" fill="url(#nc-ui-1-2_linear_43_320)"></path> <defs> <linearGradient id="nc-ui-1-0_linear_43_320" x1="24" y1="25" x2="24" y2="39" gradientUnits="userSpaceOnUse"> <stop stop-color="#D0D8FB"></stop> <stop offset="1" stop-color="#8192F3"></stop> </linearGradient> <linearGradient id="nc-ui-1-1_linear_43_320" x1="23.9998" y1="5" x2="23.9998" y2="18" gradientUnits="userSpaceOnUse"> <stop stop-color="#344EEA"></stop> <stop offset="1" stop-color="#2138BB"></stop> </linearGradient> <linearGradient id="nc-ui-1-2_linear_43_320" x1="13.5" y1="27" x2="13.5" y2="37" gradientUnits="userSpaceOnUse"> <stop stop-color="#344EEA"></stop> <stop offset="1" stop-color="#2138BB"></stop> </linearGradient> </defs></g></svg>