<svg xmlns="http://www.w3.org/2000/svg" viewBox="0 0 48 48"><g class="nc-icon-wrapper"><path d="M44,7H21a1,1,0,0,0,0,2H44a1,1,0,0,0,0-2Z" fill="#444"></path> <path d="M44,23H21a1,1,0,0,0,0,2H44a1,1,0,0,0,0-2Z" fill="#444"></path> <path d="M44,39H21a1,1,0,0,0,0,2H44a1,1,0,0,0,0-2Z" fill="#444"></path> <rect x="3" y="2" width="12" height="12" rx="1" ry="1" fill="#b3b3b3"></rect> <rect x="3" y="34" width="12" height="12" rx="1" ry="1" fill="#b3b3b3"></rect> <path d="M10.414,24l4.293-4.293a1,1,0,0,0-1.414-1.414L9,22.586,4.707,18.293a1,1,0,0,0-1.414,1.414L7.586,24,3.293,28.293a1,1,0,1,0,1.414,1.414L9,25.414l4.293,4.293a1,1,0,0,0,1.414-1.414Z" fill="#47b0ea"></path></g></svg>