<svg xmlns="http://www.w3.org/2000/svg" width="188" height="217" viewBox="0 0 188 217"><g class="nc-icon-wrapper"><defs></defs><g id="group-32svg"><path d="M55.78 80.011L10.999 35.229 37.473 8.753l44.782 44.783L55.78 80.011z" id="path-1" class="cls-3" fill-rule="evenodd" fill="#fbb713"></path><path d="M37.494 59.472l-5.111-5.112 24.503-24.503 5.111 5.111-24.503 24.504z" id="path-2" class="cls-4" fill-rule="evenodd" fill="#142a3b"></path><path d="M50.168 72.147l-5.111-5.114 24.502-24.502 5.112 5.112-24.503 24.504z" id="path-3" class="cls-4" fill-rule="evenodd" fill="#142a3b"></path><path d="M24.82 46.798l-5.11-5.112 24.501-24.504 5.112 5.112L24.82 46.798z" id="path-4" class="cls-4" fill-rule="evenodd" fill="#142a3b"></path><path d="M87.678 43.714L46.803 2.838c-1.08-1.08-.188-2.917 1.329-2.735l15.87 1.905c.358.042.692.205.947.459l39.605 39.607c1.038 1.037.258 2.809-1.207 2.744l-14.601-.634a1.612 1.612 0 0 1-1.068-.47z" id="path-5" class="cls-7" fill-rule="evenodd" fill="#ff3a2f"></path><path d="M142.473 86.199c0 5.918-4.797 10.713-10.714 10.713-5.917 0-10.714-4.795-10.714-10.713 0-5.917 4.797-10.714 10.714-10.714 5.917 0 10.714 4.797 10.714 10.714z" id="path-6" class="cls-8" fill-rule="evenodd" fill="#2476ff"></path><path d="M136.601 82.586a4.841 4.841 0 0 1-4.842 4.841 4.841 4.841 0 1 1 0-9.683 4.84 4.84 0 0 1 4.842 4.842z" id="path-7" class="cls-9" fill-rule="evenodd" fill="#ffffff"></path><path d="M187.495 6.946a6.931 6.931 0 1 1-6.931-6.931 6.931 6.931 0 0 1 6.931 6.931z" id="path-8" class="cls-8" fill-rule="evenodd" fill="#2476ff"></path><path d="M8.376 145.49c0-6.224 11.269-20.297 11.269-20.297s11.27 14.073 11.27 20.297c0 6.225-5.045 11.271-11.27 11.271-6.223 0-11.269-5.046-11.269-11.271z" id="path-9" class="cls-8" fill-rule="evenodd" fill="#2476ff"></path><path d="M88.734 36.347c-.463 0-.925-.177-1.278-.529L61.399 9.759a1.806 1.806 0 1 1 2.555-2.557l26.058 26.061a1.808 1.808 0 0 1-1.278 3.084z" id="path-10" class="cls-9" fill-rule="evenodd" fill="#ffffff"></path><path d="M60.85 133.526l83.367 83.368 13.519-13.519-79.987-79.989L59.16 83.391 9.591 33.821.015 43.397l44.5 44.501 16.335 45.628z" id="path-11" class="cls-7" fill-rule="evenodd" fill="#ff3a2f"></path></g></g></svg>