<svg xmlns="http://www.w3.org/2000/svg" viewBox="0 0 48 48"><g stroke-linecap="square" stroke-miterlimit="10" fill="currentColor" stroke-linejoin="miter" class="nc-icon-wrapper"><path data-cap="butt" data-color="color-2" fill="none" stroke="currentColor" stroke-width="2" d="M39.6,24.6c3.8-2,6.4-6,6.4-10.6 c-6.6,0-12-5.4-12-12c-4.8,0-8.9,2.8-10.8,6.8c-0.5,1.1-0.9,2.4-1,3.7" stroke-linecap="butt"></path> <path fill="none" stroke="currentColor" stroke-width="2" d="M18,12 c7.6,0,14,5.2,15.6,12.4c0.8-0.2,1.6-0.4,2.4-0.4c5.6,0,10,4.4,10,10s-4.4,10-10,10H18C9.2,44,2,36.8,2,28S9.2,12,18,12z"></path></g></svg>