<svg xmlns="http://www.w3.org/2000/svg" viewBox="0 0 48 48"><g stroke-linecap="square" stroke-miterlimit="10" fill="currentColor" stroke-linejoin="miter" class="nc-icon-wrapper"><path data-cap="butt" data-color="color-2" fill="none" stroke="currentColor" stroke-width="2" d="M43.9,20.6 c1.3-1.9,2.1-4.2,2.1-6.6c-6.6,0-12-5.4-12-12c-6,0-10.8,4.3-11.8,10" stroke-linecap="butt"></path> <polyline data-color="color-2" fill="none" stroke="currentColor" stroke-width="2" points=" 26,24 20,34 28,34 22,44 "></polyline> <path fill="none" stroke="currentColor" stroke-width="2" d="M12,34h-2c-4.4,0-8-3.6-8-8 c0-4.4,3.6-8,8-8c1,0,2,0.2,2.9,0.6C14.6,14.7,18.5,12,23,12c4.8,0,8.9,3.1,10.4,7.5c1.3-0.9,2.9-1.5,4.6-1.5c4.4,0,8,3.6,8,8 c0,4.4-3.6,8-8,8h-2"></path></g></svg>